<svg width="25" height="30" viewBox="0 0 25 30" fill="none" xmlns="http://www.w3.org/2000/svg">
<path d="M0.842118 14.8047V4.59357C0.842118 4.02616 1.30208 3.56616 1.86953 3.56616H12.0754C12.6428 3.56616 13.1028 4.02616 13.1028 4.59357V14.8048C13.1028 14.9939 12.9495 15.1472 12.7603 15.1472H1.18459C0.995412 15.1472 0.842118 14.9939 0.842118 14.8047ZM9.08369 18.3028C9.08369 19.4797 8.12961 20.4337 6.95278 20.4337C5.77596 20.4337 4.82188 19.4797 4.82188 18.3028C4.82188 17.1259 5.77596 16.1719 6.95278 16.1719C8.12961 16.1719 9.08369 17.1259 9.08369 18.3028ZM8.0182 18.3028C8.0182 17.7144 7.54118 17.2374 6.95275 17.2374C6.36431 17.2374 5.88726 17.7144 5.88726 18.3028C5.88726 18.8913 6.36431 19.3683 6.95275 19.3683C7.54118 19.3683 8.0182 18.8913 8.0182 18.3028ZM5.11745 16.1719H0.342471C0.153333 16.1719 0 16.3252 0 16.5144V17.5534C0 17.7425 0.153333 17.8959 0.342471 17.8959H4.16984C4.26976 17.2102 4.61584 16.6046 5.11745 16.1719ZM20.2329 18.3028C20.2329 19.4797 19.2788 20.4337 18.102 20.4337C16.9251 20.4337 15.9711 19.4797 15.9711 18.3028C15.9711 17.1259 16.9251 16.1719 18.102 16.1719C19.2788 16.1719 20.2329 17.1259 20.2329 18.3028ZM19.1675 18.3028C19.1675 17.7144 18.6904 17.2374 18.102 17.2374C17.5135 17.2374 17.0365 17.7144 17.0365 18.3028C17.0365 18.8913 17.5135 19.3683 18.102 19.3683C18.6904 19.3683 19.1675 18.8913 19.1675 18.3028ZM24 16.5144V17.5534C24 17.7425 23.8467 17.8959 23.6575 17.8959H20.8848C20.6865 16.5357 19.516 15.487 18.102 15.487C16.6878 15.487 15.5173 16.5358 15.3189 17.8959H9.73573C9.63577 17.2102 9.28973 16.6046 8.78812 16.1719H14.082V6.37616C14.082 5.99789 14.3887 5.69122 14.7669 5.69122H18.0001C18.9104 5.69122 19.7613 6.14342 20.2707 6.89789L22.355 9.98499C22.6607 10.4378 22.8241 10.9717 22.8241 11.5181V16.1719H23.6575C23.8467 16.1719 24 16.3252 24 16.5144ZM20.5258 10.064L18.8591 7.69569C18.7949 7.60456 18.6905 7.55032 18.579 7.55032H15.9792C15.7901 7.55032 15.6367 7.70365 15.6367 7.89279V10.2611C15.6367 10.4503 15.7901 10.6036 15.9792 10.6036H20.2458C20.5232 10.6036 20.6855 10.2909 20.5258 10.064Z" fill="#C4C4C4"/>
<path d="M2.64176 23.093C3.15509 23.093 3.60776 23.1957 3.99976 23.401C4.39642 23.6063 4.70442 23.8957 4.92376 24.269C5.14309 24.6377 5.25276 25.0623 5.25276 25.543C5.25276 26.0237 5.14076 26.4507 4.91676 26.824C4.69742 27.1973 4.38476 27.4867 3.97876 27.692C3.57742 27.8973 3.11542 28 2.59276 28H0.527758V23.093H2.64176ZM2.67676 26.964C2.92409 26.964 3.14342 26.9057 3.33476 26.789C3.52609 26.6723 3.67542 26.5067 3.78276 26.292C3.89009 26.0773 3.94376 25.8323 3.94376 25.557C3.94376 25.277 3.88542 25.0297 3.76876 24.815C3.65676 24.6003 3.50042 24.4347 3.29976 24.318C3.09909 24.1967 2.87042 24.136 2.61376 24.136H1.80876V26.964H2.67676ZM9.02625 27.132H6.90525L6.56225 28H5.24625L7.35325 23.093H8.66925L10.7273 28H9.36225L9.02625 27.132ZM8.64825 26.152L7.97625 24.402L7.29025 26.152H8.64825ZM14.1183 28L13.4043 26.642H13.3763H12.4523V28H11.1713V23.093H13.3763C14.025 23.093 14.5266 23.2447 14.8813 23.548C15.2406 23.8467 15.4203 24.269 15.4203 24.815C15.4203 25.1837 15.3456 25.5033 15.1963 25.774C15.047 26.04 14.83 26.2477 14.5453 26.397L15.5673 28H14.1183ZM12.4523 25.62H13.3833C13.6446 25.62 13.8453 25.5547 13.9853 25.424C14.13 25.2933 14.2023 25.1043 14.2023 24.857C14.2023 24.619 14.13 24.437 13.9853 24.311C13.8453 24.1803 13.6446 24.115 13.3833 24.115H12.4523V25.62ZM19.5057 27.132H17.3847L17.0417 28H15.7257L17.8327 23.093H19.1487L21.2067 28H19.8417L19.5057 27.132ZM19.1277 26.152L18.4557 24.402L17.7697 26.152H19.1277ZM24.9044 23.093V24.15H23.4344V28H22.1534V24.15H20.6974V23.093H24.9044Z" fill="#C4C4C4"/>
</svg>
