<svg width="34" height="30" viewBox="0 0 34 30" fill="none" xmlns="http://www.w3.org/2000/svg">
<path d="M29 13.4459L26.1669 19.3502C25.8126 20.0371 25.1043 20.4687 24.3313 20.4687H7.62643C7.31859 20.4687 7.1189 20.1441 7.25773 19.8693L7.26475 19.8554C7.49133 19.4068 7.3569 18.86 6.94812 18.5677L6.92502 18.5511C5.97612 17.8725 5.4131 16.7776 5.4131 15.611V14.2721H20.2848V14.2639C20.2848 13.8121 20.651 13.4459 21.1027 13.4459H29ZM19.4585 8.48872H16.5669C16.3387 8.48872 16.1538 8.67366 16.1538 8.90182V13.4459C16.1538 13.6741 16.3387 13.8591 16.5669 13.8591H19.4585C19.6867 13.8591 19.8716 13.6741 19.8716 13.4459V8.90182C19.8717 8.67366 19.6867 8.48872 19.4585 8.48872ZM24.4158 10.1411H21.111C20.8829 10.1411 20.6979 10.3261 20.6979 10.5542V12.2066C20.6979 12.4347 20.8829 12.6197 21.111 12.6197H24.4158C24.6439 12.6197 24.8289 12.4347 24.8289 12.2066V10.5542C24.8289 10.3261 24.6439 10.1411 24.4158 10.1411ZM11.6096 13.859H14.9144C15.1425 13.859 15.3275 13.674 15.3275 13.4459V10.1411C15.3275 9.91296 15.1425 9.72801 14.9144 9.72801H11.6096C11.3815 9.72801 11.1965 9.91296 11.1965 10.1411V13.4459C11.1965 13.6741 11.3815 13.859 11.6096 13.859ZM11.3982 7.66248L10.3704 8.48872V13.859H6.23929V8.48872H5V7.66248H7.89169V6.4646H6.82376V5.9824H7.89169V3.53149H8.30478V5.9824H9.37275V6.4646H8.30478V7.66248H11.3982ZM9.62404 11.0614H8.27973V12.295H9.62404V11.0614ZM9.62404 9.08445H8.27973V10.3181H9.62404V9.08445Z" fill="#C4C4C4"/>
<path d="M4.347 23.093V24.115H1.757V25.032H4.095V26.047L1.757 26.054V26.978H4.417V28H0.476V23.093H4.347ZM6.35463 23.093L7.27163 24.486L8.19563 23.093H9.70763L8.09063 25.438L9.84763 28H8.31463L7.27163 26.481L6.24963 28H4.75163L6.49463 25.501L4.86363 23.093H6.35463ZM12.5236 23.093C13.1489 23.093 13.6343 23.2447 13.9796 23.548C14.3249 23.8467 14.4976 24.269 14.4976 24.815C14.4976 25.3937 14.3249 25.844 13.9796 26.166C13.6343 26.4833 13.1489 26.642 12.5236 26.642H11.6486V28H10.3676V23.093H12.5236ZM12.4606 25.62C12.7219 25.62 12.9226 25.5547 13.0626 25.424C13.2073 25.2933 13.2796 25.1043 13.2796 24.857C13.2796 24.619 13.2073 24.437 13.0626 24.311C12.9226 24.1803 12.7219 24.115 12.4606 24.115H11.6486V25.62H12.4606ZM18.0724 28L17.3584 26.642H17.3304H16.4064V28H15.1254V23.093H17.3304C17.9791 23.093 18.4807 23.2447 18.8354 23.548C19.1947 23.8467 19.3744 24.269 19.3744 24.815C19.3744 25.1837 19.2997 25.5033 19.1504 25.774C19.0011 26.04 18.7841 26.2477 18.4994 26.397L19.5214 28H18.0724ZM16.4064 25.62H17.3374C17.5987 25.62 17.7994 25.5547 17.9394 25.424C18.0841 25.2933 18.1564 25.1043 18.1564 24.857C18.1564 24.619 18.0841 24.437 17.9394 24.311C17.7994 24.1803 17.5987 24.115 17.3374 24.115H16.4064V25.62ZM24.0618 23.093V24.115H21.4718V25.032H23.8098V26.047L21.4718 26.054V26.978H24.1318V28H20.1908V23.093H24.0618ZM28.2955 24.57C28.0341 24.416 27.7541 24.29 27.4555 24.192C27.1615 24.094 26.9141 24.045 26.7135 24.045C26.5548 24.045 26.4288 24.0753 26.3355 24.136C26.2468 24.192 26.2025 24.276 26.2025 24.388C26.2025 24.4953 26.2421 24.5863 26.3215 24.661C26.4008 24.731 26.4988 24.7893 26.6155 24.836C26.7321 24.878 26.9048 24.934 27.1335 25.004C27.4741 25.102 27.7541 25.2 27.9735 25.298C28.1975 25.396 28.3888 25.5477 28.5475 25.753C28.7061 25.9537 28.7855 26.2173 28.7855 26.544C28.7855 26.8707 28.6991 27.1507 28.5265 27.384C28.3538 27.6127 28.1158 27.7853 27.8125 27.902C27.5138 28.0187 27.1801 28.077 26.8115 28.077C26.4055 28.077 25.9995 28.007 25.5935 27.867C25.1921 27.7223 24.8445 27.5263 24.5505 27.279L25.0475 26.278C25.2948 26.4973 25.5865 26.677 25.9225 26.817C26.2631 26.957 26.5641 27.027 26.8255 27.027C27.0168 27.027 27.1661 26.992 27.2735 26.922C27.3855 26.852 27.4415 26.7493 27.4415 26.614C27.4415 26.502 27.3995 26.4087 27.3155 26.334C27.2361 26.2593 27.1335 26.201 27.0075 26.159C26.8861 26.1123 26.7135 26.0587 26.4895 25.998C26.1535 25.9047 25.8758 25.8113 25.6565 25.718C25.4371 25.62 25.2481 25.4753 25.0895 25.284C24.9355 25.088 24.8585 24.829 24.8585 24.507C24.8585 24.2037 24.9378 23.9377 25.0965 23.709C25.2598 23.4803 25.4885 23.3053 25.7825 23.184C26.0811 23.058 26.4265 22.995 26.8185 22.995C27.1731 22.995 27.5231 23.0463 27.8685 23.149C28.2138 23.247 28.5171 23.38 28.7785 23.548L28.2955 24.57ZM32.8209 24.57C32.5595 24.416 32.2795 24.29 31.9809 24.192C31.6869 24.094 31.4395 24.045 31.2389 24.045C31.0802 24.045 30.9542 24.0753 30.8609 24.136C30.7722 24.192 30.7279 24.276 30.7279 24.388C30.7279 24.4953 30.7675 24.5863 30.8469 24.661C30.9262 24.731 31.0242 24.7893 31.1409 24.836C31.2575 24.878 31.4302 24.934 31.6589 25.004C31.9995 25.102 32.2795 25.2 32.4989 25.298C32.7229 25.396 32.9142 25.5477 33.0729 25.753C33.2315 25.9537 33.3109 26.2173 33.3109 26.544C33.3109 26.8707 33.2245 27.1507 33.0519 27.384C32.8792 27.6127 32.6412 27.7853 32.3379 27.902C32.0392 28.0187 31.7055 28.077 31.3369 28.077C30.9309 28.077 30.5249 28.007 30.1189 27.867C29.7175 27.7223 29.3699 27.5263 29.0759 27.279L29.5729 26.278C29.8202 26.4973 30.1119 26.677 30.4479 26.817C30.7885 26.957 31.0895 27.027 31.3509 27.027C31.5422 27.027 31.6915 26.992 31.7989 26.922C31.9109 26.852 31.9669 26.7493 31.9669 26.614C31.9669 26.502 31.9249 26.4087 31.8409 26.334C31.7615 26.2593 31.6589 26.201 31.5329 26.159C31.4115 26.1123 31.2389 26.0587 31.0149 25.998C30.6789 25.9047 30.4012 25.8113 30.1819 25.718C29.9625 25.62 29.7735 25.4753 29.6149 25.284C29.4609 25.088 29.3839 24.829 29.3839 24.507C29.3839 24.2037 29.4632 23.9377 29.6219 23.709C29.7852 23.4803 30.0139 23.3053 30.3079 23.184C30.6065 23.058 30.9519 22.995 31.3439 22.995C31.6985 22.995 32.0485 23.0463 32.3939 23.149C32.7392 23.247 33.0425 23.38 33.3039 23.548L32.8209 24.57Z" fill="#C4C4C4"/>
</svg>
