<svg width="34" height="30" viewBox="0 0 34 30" fill="none" xmlns="http://www.w3.org/2000/svg">
<path d="M29 13.4459L26.1669 19.3502C25.8126 20.0371 25.1043 20.4687 24.3313 20.4687H7.62643C7.31859 20.4687 7.1189 20.1441 7.25773 19.8693L7.26475 19.8554C7.49133 19.4068 7.3569 18.86 6.94812 18.5677L6.92502 18.5511C5.97612 17.8725 5.4131 16.7776 5.4131 15.611V14.2721H20.2848V14.2639C20.2848 13.8121 20.651 13.4459 21.1027 13.4459H29ZM19.4585 8.48872H16.5669C16.3387 8.48872 16.1538 8.67366 16.1538 8.90182V13.4459C16.1538 13.6741 16.3387 13.8591 16.5669 13.8591H19.4585C19.6867 13.8591 19.8716 13.6741 19.8716 13.4459V8.90182C19.8717 8.67366 19.6867 8.48872 19.4585 8.48872ZM24.4158 10.1411H21.111C20.8829 10.1411 20.6979 10.3261 20.6979 10.5542V12.2066C20.6979 12.4347 20.8829 12.6197 21.111 12.6197H24.4158C24.6439 12.6197 24.8289 12.4347 24.8289 12.2066V10.5542C24.8289 10.3261 24.6439 10.1411 24.4158 10.1411ZM11.6096 13.859H14.9144C15.1425 13.859 15.3275 13.674 15.3275 13.4459V10.1411C15.3275 9.91296 15.1425 9.72801 14.9144 9.72801H11.6096C11.3815 9.72801 11.1965 9.91296 11.1965 10.1411V13.4459C11.1965 13.6741 11.3815 13.859 11.6096 13.859ZM11.3982 7.66248L10.3704 8.48872V13.859H6.23929V8.48872H5V7.66248H7.89169V6.4646H6.82376V5.9824H7.89169V3.53149H8.30478V5.9824H9.37275V6.4646H8.30478V7.66248H11.3982ZM9.62404 11.0614H8.27973V12.295H9.62404V11.0614ZM9.62404 9.08445H8.27973V10.3181H9.62404V9.08445Z" fill="#C4C4C4"/>
<path d="M3.423 28L2.709 26.642H2.681H1.757V28H0.476V23.093H2.681C3.32967 23.093 3.83133 23.2447 4.186 23.548C4.54533 23.8467 4.725 24.269 4.725 24.815C4.725 25.1837 4.65033 25.5033 4.501 25.774C4.35167 26.04 4.13467 26.2477 3.85 26.397L4.872 28H3.423ZM1.757 25.62H2.688C2.94933 25.62 3.15 25.5547 3.29 25.424C3.43467 25.2933 3.507 25.1043 3.507 24.857C3.507 24.619 3.43467 24.437 3.29 24.311C3.15 24.1803 2.94933 24.115 2.688 24.115H1.757V25.62ZM9.41243 23.093V24.115H6.82243V25.032H9.16043V26.047L6.82243 26.054V26.978H9.48243V28H5.54143V23.093H9.41243ZM13.5131 25.494H14.6191V27.447C14.3577 27.6383 14.0357 27.7947 13.6531 27.916C13.2751 28.0327 12.9157 28.091 12.5751 28.091C12.0804 28.091 11.6324 27.9813 11.2311 27.762C10.8344 27.538 10.5217 27.2323 10.2931 26.845C10.0644 26.4577 9.95006 26.0237 9.95006 25.543C9.95006 25.067 10.0667 24.6377 10.3001 24.255C10.5381 23.8677 10.8624 23.5643 11.2731 23.345C11.6884 23.1257 12.1504 23.016 12.6591 23.016C13.0231 23.016 13.3871 23.0837 13.7511 23.219C14.1151 23.3497 14.4231 23.527 14.6751 23.751L13.9471 24.647C13.7697 24.479 13.5644 24.346 13.3311 24.248C13.1024 24.15 12.8761 24.101 12.6521 24.101C12.3907 24.101 12.1551 24.164 11.9451 24.29C11.7351 24.416 11.5694 24.5887 11.4481 24.808C11.3267 25.0273 11.2661 25.2723 11.2661 25.543C11.2661 25.8183 11.3267 26.068 11.4481 26.292C11.5694 26.5113 11.7374 26.684 11.9521 26.81C12.1667 26.936 12.4047 26.999 12.6661 26.999C12.9134 26.999 13.1957 26.9197 13.5131 26.761V25.494ZM16.6642 25.977C16.6642 26.285 16.7552 26.5323 16.9372 26.719C17.1192 26.9057 17.3502 26.999 17.6302 26.999C17.9055 26.999 18.1272 26.908 18.2952 26.726C18.4679 26.5393 18.5542 26.2897 18.5542 25.977V23.093H19.8352V25.977C19.8352 26.4017 19.7442 26.775 19.5622 27.097C19.3849 27.4143 19.1282 27.6593 18.7922 27.832C18.4609 28.0047 18.0712 28.091 17.6232 28.091C17.1752 28.091 16.7809 28.0047 16.4402 27.832C16.1042 27.6593 15.8429 27.4143 15.6562 27.097C15.4742 26.775 15.3832 26.4017 15.3832 25.977V23.093H16.6642V25.977ZM21.9914 23.093V26.908H24.0704V28H20.7104V23.093H21.9914ZM28.5257 23.093V24.115H25.9357V25.032H28.2737V26.047L25.9357 26.054V26.978H28.5957V28H24.6547V23.093H28.5257ZM32.3253 28L31.6113 26.642H31.5833H30.6593V28H29.3783V23.093H31.5833C32.232 23.093 32.7337 23.2447 33.0883 23.548C33.4477 23.8467 33.6273 24.269 33.6273 24.815C33.6273 25.1837 33.5527 25.5033 33.4033 25.774C33.254 26.04 33.037 26.2477 32.7523 26.397L33.7743 28H32.3253ZM30.6593 25.62H31.5903C31.8517 25.62 32.0523 25.5547 32.1923 25.424C32.337 25.2933 32.4093 25.1043 32.4093 24.857C32.4093 24.619 32.337 24.437 32.1923 24.311C32.0523 24.1803 31.8517 24.115 31.5903 24.115H30.6593V25.62Z" fill="#C4C4C4"/>
</svg>
