<svg width="27" height="30" viewBox="0 0 27 30" fill="none" xmlns="http://www.w3.org/2000/svg">
<g clip-path="url(#clip0)">
<path d="M25 7.67525C25 11.827 4.98534 16.4096 3.4698 16.4096C2.62012 16.4096 1.65608 16.2138 1.65608 15.4305C1.65608 15.1687 1.95815 14.7905 2.48823 14.3344L2.48765 14.3347L1.0827 11.8384C0.892467 11.5005 1.04329 11.0723 1.40329 10.9281L1.64474 10.8315C2.08235 10.6563 2.57486 10.6824 2.99145 10.9029L5.542 12.2532C6.53506 11.6641 7.66157 11.0474 8.84891 10.4403L3.87851 7.2156C3.48529 6.96047 3.48949 6.38345 3.88639 6.13411L4.29298 5.87866C4.96969 5.45353 5.79236 5.32796 6.56506 5.53176L14.8337 7.71278C17.4118 6.68948 19.7428 5.99105 21.1225 5.99105C21.4909 5.99105 21.8599 6.00082 22.2161 6.02627L19.719 7.15352L19.6592 7.99344L23.5138 6.22156C24.4377 6.44192 25 6.85317 25 7.67525ZM14.9409 14.8421L18.0251 18.3457C18.2131 18.5593 18.5192 18.6235 18.7771 18.5037L19.1902 18.3117C19.9434 17.9615 20.3871 17.1677 20.2906 16.3427L19.9045 13.0413C19.8806 12.837 19.6733 12.7077 19.4793 12.776L15.075 14.3275C14.8607 14.403 14.7906 14.6714 14.9409 14.8421Z" fill="#C4C4C4"/>
</g>
<path d="M1.673 25.977C1.673 26.285 1.764 26.5323 1.946 26.719C2.128 26.9057 2.359 26.999 2.639 26.999C2.91433 26.999 3.136 26.908 3.304 26.726C3.47667 26.5393 3.563 26.2897 3.563 25.977V23.093H4.844V25.977C4.844 26.4017 4.753 26.775 4.571 27.097C4.39367 27.4143 4.137 27.6593 3.801 27.832C3.46967 28.0047 3.08 28.091 2.632 28.091C2.184 28.091 1.78967 28.0047 1.449 27.832C1.113 27.6593 0.851667 27.4143 0.665 27.097C0.483 26.775 0.392 26.4017 0.392 25.977V23.093H1.673V25.977ZM7.83316 23.093C8.3465 23.093 8.79916 23.1957 9.19116 23.401C9.58783 23.6063 9.89583 23.8957 10.1152 24.269C10.3345 24.6377 10.4442 25.0623 10.4442 25.543C10.4442 26.0237 10.3322 26.4507 10.1082 26.824C9.88883 27.1973 9.57616 27.4867 9.17016 27.692C8.76883 27.8973 8.30683 28 7.78416 28H5.71916V23.093H7.83316ZM7.86816 26.964C8.1155 26.964 8.33483 26.9057 8.52616 26.789C8.7175 26.6723 8.86683 26.5067 8.97416 26.292C9.0815 26.0773 9.13516 25.8323 9.13516 25.557C9.13516 25.277 9.07683 25.0297 8.96016 24.815C8.84816 24.6003 8.69183 24.4347 8.49116 24.318C8.2905 24.1967 8.06183 24.136 7.80516 24.136H7.00016V26.964H7.86816ZM14.2177 27.132H12.0967L11.7537 28H10.4377L12.5447 23.093H13.8607L15.9187 28H14.5537L14.2177 27.132ZM13.8397 26.152L13.1677 24.402L12.4817 26.152H13.8397ZM19.3097 28L18.5957 26.642H18.5677H17.6437V28H16.3627V23.093H18.5677C19.2164 23.093 19.7181 23.2447 20.0727 23.548C20.4321 23.8467 20.6117 24.269 20.6117 24.815C20.6117 25.1837 20.5371 25.5033 20.3877 25.774C20.2384 26.04 20.0214 26.2477 19.7367 26.397L20.7587 28H19.3097ZM17.6437 25.62H18.5747C18.8361 25.62 19.0367 25.5547 19.1767 25.424C19.3214 25.2933 19.3937 25.1043 19.3937 24.857C19.3937 24.619 19.3214 24.437 19.1767 24.311C19.0367 24.1803 18.8361 24.115 18.5747 24.115H17.6437V25.62ZM24.6971 27.132H22.5761L22.2331 28H20.9171L23.0241 23.093H24.3401L26.3981 28H25.0331L24.6971 27.132ZM24.3191 26.152L23.6471 24.402L22.9611 26.152H24.3191Z" fill="#C4C4C4"/>
<defs>
<clipPath id="clip0">
<rect width="24" height="24" fill="white" transform="translate(1)"/>
</clipPath>
</defs>
</svg>
